<?xml version="1.0" standalone="no"?><!DOCTYPE svg PUBLIC "-//W3C//DTD SVG 1.1//EN" "http://www.w3.org/Graphics/SVG/1.1/DTD/svg11.dtd"><svg class="icon" width="200px" height="200.00px" viewBox="0 0 1024 1024" version="1.1" xmlns="http://www.w3.org/2000/svg"><path fill="#333333" d="M397 477H197c-38.6 0-70-31.4-70-70V207c0-38.6 31.4-70 70-70h200c38.6 0 70 31.4 70 70v200c0 38.6-31.4 70-70 70zM197 197c-5.5 0-10 4.5-10 10v200c0 5.5 4.5 10 10 10h200c5.5 0 10-4.5 10-10V207c0-5.5-4.5-10-10-10H197zM397 897H197c-38.6 0-70-31.4-70-70V627c0-38.6 31.4-70 70-70h200c38.6 0 70 31.4 70 70v200c0 38.6-31.4 70-70 70zM197 617c-5.5 0-10 4.5-10 10v200c0 5.5 4.5 10 10 10h200c5.5 0 10-4.5 10-10V627c0-5.5-4.5-10-10-10H197zM817 897H617c-38.6 0-70-31.4-70-70V627c0-38.6 31.4-70 70-70h200c38.6 0 70 31.4 70 70v200c0 38.6-31.4 70-70 70zM617 617c-5.5 0-10 4.5-10 10v200c0 5.5 4.5 10 10 10h200c5.5 0 10-4.5 10-10V627c0-5.5-4.5-10-10-10H617zM707 507c-17.9 0-35.7-6.8-49.3-20.4L537.4 366.3C524.3 353.1 517 335.6 517 317s7.3-36.1 20.4-49.3l120.3-120.3c27.2-27.2 71.4-27.2 98.6 0l120.3 120.3c13.2 13.2 20.4 30.7 20.4 49.3s-7.3 36.1-20.4 49.3L756.3 486.6C742.7 500.2 724.9 507 707 507z m-6.9-317.1L579.8 310.1c-2.5 2.5-2.8 5.4-2.8 6.9s0.4 4.4 2.8 6.9l120.3 120.3c3.8 3.8 10 3.8 13.8 0l120.3-120.3c2.5-2.5 2.8-5.4 2.8-6.9s-0.4-4.4-2.8-6.9L713.9 189.9c-3.8-3.8-10-3.8-13.8 0z" /></svg>