<?xml version="1.0" standalone="no"?><!DOCTYPE svg PUBLIC "-//W3C//DTD SVG 1.1//EN" "http://www.w3.org/Graphics/SVG/1.1/DTD/svg11.dtd"><svg class="icon" width="200px" height="200.00px" viewBox="0 0 1024 1024" version="1.1" xmlns="http://www.w3.org/2000/svg"><path fill="#d81e06" d="M427 477H167c-22.1 0-40-17.9-40-40V177c0-22.1 17.9-40 40-40h260c22.1 0 40 17.9 40 40v260c0 22.1-17.9 40-40 40zM427 897H167c-22.1 0-40-17.9-40-40V597c0-22.1 17.9-40 40-40h260c22.1 0 40 17.9 40 40v260c0 22.1-17.9 40-40 40zM847 557H587c-22.1 0-40 17.9-40 40v260c0 22.1 17.9 40 40 40h260c22.1 0 40-17.9 40-40V597c0-22.1-17.9-40-40-40zM673.6 140.8L530.8 283.6c-18.4 18.4-18.4 48.3 0 66.7l142.8 142.8c18.4 18.4 48.3 18.4 66.7 0l142.8-142.8c18.4-18.4 18.4-48.3 0-66.7L740.4 140.8c-18.5-18.4-48.3-18.4-66.8 0z" /></svg>