<?xml version="1.0" standalone="no"?><!DOCTYPE svg PUBLIC "-//W3C//DTD SVG 1.1//EN" "http://www.w3.org/Graphics/SVG/1.1/DTD/svg11.dtd"><svg class="icon" width="200px" height="200.00px" viewBox="0 0 1024 1024" version="1.1" xmlns="http://www.w3.org/2000/svg"><path fill="#d81e06" d="M879.9 377.9l-350-260c-10.6-7.9-25.2-7.9-35.8 0l-350 260c-7.6 5.7-12.1 14.6-12.1 24.1v480c0 16.6 13.4 30 30 30h230c16.6 0 30-13.4 30-30V692c0-49.6 40.4-90 90-90s90 40.4 90 90v190c0 16.6 13.4 30 30 30h230c16.6 0 30-13.4 30-30V402c0-9.5-4.5-18.4-12.1-24.1z" /></svg>