<?xml version="1.0" standalone="no"?><!DOCTYPE svg PUBLIC "-//W3C//DTD SVG 1.1//EN" "http://www.w3.org/Graphics/SVG/1.1/DTD/svg11.dtd"><svg class="icon" width="200px" height="200.00px" viewBox="0 0 1024 1024" version="1.1" xmlns="http://www.w3.org/2000/svg"><path fill="#333333" d="M827.9 912H196.1c-17.4 0-34.2-7.5-46.2-20.6-11.5-12.6-17.9-29.1-17.9-46.6V742c0-9 4-17.5 11-23.2 1.6-1.3 40.2-32.6 104.7-63.8 37.8-18.2 76.8-32.8 116.1-43.2C413.2 598.6 463.1 592 512 592s98.8 6.6 148.1 19.8c39.3 10.4 78.4 25 116.1 43.2 64.6 31.2 103.1 62.5 104.7 63.8 7 5.7 11 14.2 11 23.2v102.9c0 17.5-6.4 34-17.9 46.6-11.9 13-28.7 20.5-46.1 20.5zM192 757v87.9c0 2.4 0.8 4.5 2.1 6 0.5 0.5 1.2 1.2 2 1.2h631.8c0.8 0 1.5-0.6 2-1.2 1.3-1.4 2.1-3.6 2.1-6V757c-14.8-10.6-43.8-29.8-83.5-48.8C695 682.6 610.6 652 512 652s-183 30.6-236.5 56.2c-39.7 19-68.7 38.2-83.5 48.8zM512 572c-61.4 0-119.2-23.9-162.6-67.4C305.9 461.2 282 403.4 282 342s23.9-119.2 67.4-162.6C392.8 135.9 450.6 112 512 112c61.4 0 119.2 23.9 162.6 67.4C718.1 222.8 742 280.6 742 342s-23.9 119.2-67.4 162.6S573.4 572 512 572z m0-400c-93.7 0-170 76.3-170 170s76.3 170 170 170 170-76.3 170-170-76.3-170-170-170z" /></svg>