<?xml version="1.0" standalone="no"?><!DOCTYPE svg PUBLIC "-//W3C//DTD SVG 1.1//EN" "http://www.w3.org/Graphics/SVG/1.1/DTD/svg11.dtd"><svg class="icon" width="200px" height="200.00px" viewBox="0 0 1024 1024" version="1.1" xmlns="http://www.w3.org/2000/svg"><path fill="#d81e06" d="M881 718.8C874.7 713.6 723.5 592 512 592S149.3 713.6 143 718.8c-7 5.7-11 14.2-11 23.2v102.9c0 17.5 6.3 34 17.9 46.6 12 13.1 28.9 20.6 46.2 20.6h631.8c17.3 0 34.2-7.5 46.2-20.6 11.5-12.5 17.9-29.1 17.9-46.6V742c0-9-4-17.5-11-23.2zM512 572c126.8 0 230-103.2 230-230S638.8 112 512 112 282 215.2 282 342s103.2 230 230 230z" /></svg>